<svg xmlns="http://www.w3.org/2000/svg" width="192.172" height="133.915"><defs><clipPath id="a"><path d="M379.22 195.96c-110.384-38.288-229.232-43.827-254.072-42.722C207.953 84.195 355.48-46.11 598.684 28.285 554.27 40.355 449.504 80.738 379.22 195.96" clip-rule="evenodd"/></clipPath><clipPath id="b"><path d="M0 0h2007.13v1532.03H0z"/></clipPath></defs><path fill="#099cec" fill-rule="evenodd" d="M187.816 52.473c-4.073-2.74-14.773-3.912-22.553-1.816-.418-7.75-4.415-14.28-11.726-19.977l-2.705-1.816-1.805 2.724c-3.544 5.39-5.038 12.55-4.508 19.07.41 4.02 1.81 8.53 4.5 11.81-2.07 1.61-8.49 4.71-17.14 4.54H2.9c-2.29 13.62 1.64 65.38 61.34 65.38 44.33 0 80.74-19.93 97.42-61.74 5.486.09 19.97.99 27.06-12.71.17-.23 1.804-3.63 1.804-3.63l-2.7-1.812"/><g transform="matrix(.13333 0 0 -.13333 0 133.917)" clip-path="url(#a)"><g clip-path="url(#b)"><path fill="#fff" d="M57.5 0h608.836v263.61H57.5z"/></g></g><path fill="#026fb6" fill-rule="evenodd" d="M48.918 104.61c-7.082 4.043-15.29 6.31-23.993 6.31-4.41 0-8.683-.584-12.748-1.683l2.574 4.327c3.3.65 6.7.99 10.18.99 9.38 0 18.13-2.45 25.75-6.764-.63-1.045-1.21-2.09-1.75-3.18"/><path fill="#fff" fill-rule="evenodd" d="M62.644 102.257c3.464 0 6.27-2.827 6.27-6.314 0-3.486-2.806-6.313-6.27-6.313-3.464 0-6.272 2.827-6.272 6.313 0 3.487 2.808 6.314 6.272 6.314"/><path fill="#4d5c64" d="M63.588 94.17c0-.58.286-1.072.705-1.404-.492-.26-1.04-.42-1.63-.42-1.98 0-3.585 1.61-3.585 3.61 0 2 1.605 3.6 3.584 3.6 1.98 0 3.584-1.62 3.584-3.61l-.02-.21c-.254.134-.53.23-.834.23-.997 0-1.804-.81-1.804-1.816"/><path fill="#f2f2f2" d="M187.277 52.145c-2.788-1.58-7.863-2.56-13.103-2.56-3.056 0-6.168.334-8.915 1.074-.01-.17-.02-.33-.04-.49 2.47-.66 5.32-.95 8.15-.95 5.63 0 11.24 1.15 13.89 2.92M42.05 129.7c-12.283-3.17-21.017-9.093-27.193-16.114.624.12 1.25.23 1.882.33 5.52 6.27 13.03 11.63 23.17 14.94.7.29 1.41.57 2.13.84"/><path fill="#f2f2f2" d="M39.92 128.857c-10.143-3.305-17.656-8.67-23.176-14.94.186.03.374.058.56.085 5.414 4.525 12.803 10.755 22.616 14.855"/><path fill="#0994e0" d="M39.92 128.857c-10.143-3.305-17.656-8.67-23.176-14.94.186.03.374.058.56.085 5.414 4.525 12.803 10.755 22.616 14.855"/><path fill="#f2f2f2" d="M14.552 113.23C1.015 97.544.012 76.568.564 68.47h2.14c-.956 8.366.228 26.305 10.582 41.053-.37-.09-.74-.186-1.11-.286 1.48 2.485 2.11 3.543 2.376 3.994m48.72 18.95c-8.045 0-15.074-.89-21.217-2.48-.724-.27-1.436-.55-2.135-.84-9.813-4.1-17.202-10.33-22.615-14.85 2.487.367 5.03.556 7.62.556 1.07 0 2.13-.032 3.18-.095 8.844 6.515 21.38 10.26 39.203 10.308l.197-.004c5.005 3.048 9.544 4.63 12.318 5.384-2.265.69-4.466 1.25-6.607 1.69-3.266.22-6.582.34-9.944.34"/><path fill="#f2f2f2" d="M63.272 132.18c-8.045 0-15.074-.896-21.217-2.48-.724-.27-1.436-.55-2.135-.843-9.813-4.1-17.202-10.33-22.615-14.855 2.487.364 5.03.553 7.62.553 1.07 0 2.13-.032 3.18-.095 8.844 6.514 21.38 10.258 39.203 10.307l.197-.005c5.005 3.048 9.544 4.63 12.318 5.384-2.265.69-4.466 1.25-6.607 1.69-3.266.22-6.582.34-9.944.34"/><path fill="#0994e0" d="M23.918 110.91c-3.657-.073-7.214-.55-10.632-1.387C2.932 94.773 1.748 76.835 2.703 68.47H7.78c1.707 17.42 5.755 32.345 16.138 42.44m49.3 20.927c2.14-.44 4.342-1 6.607-1.69-2.774-.756-7.314-2.337-12.32-5.385 41.234-1.004 71.428-22.167 95.563-72.12l1.656-2.333c.167-.05.336-.1.508-.14.012.16.023.32.03.48 2.75-.74 5.86-1.077 8.917-1.077 5.24 0 10.31.98 13.1 2.56 0 .002.01.005.01.01l2.72 1.85-1.38 2.903c-6.26 12.68-19.84 13.633-26.2 13.633-.52 0-.99-.006-1.4-.013-15.59 38.608-47.98 58.52-87.83 61.314"/><path fill="#0269ad" d="M24.925 114.554c-2.59 0-5.132-.188-7.62-.552-.187-.027-.374-.056-.56-.085-.632-.1-1.26-.21-1.882-.332-.105-.12-.208-.236-.31-.355l-2.376-3.993c.368.1.738.195 1.11.286 3.417.837 6.974 1.314 10.63 1.388 1.296 1.26 2.69 2.45 4.19 3.55-1.052.07-2.112.1-3.182.1"/><path fill="#099cec" fill-rule="evenodd" d="M61.966 46.904v18.003H81.81V46.903"/><path fill="#066da5" d="M65.574 61.337h1.804V50.51h-1.804v10.827m5.41 0h1.806V50.51h-1.805v10.827m5.412 0h1.805V50.51h-1.805v10.827"/><path fill="#099cec" fill-rule="evenodd" d="M85.417 46.904v18.003h19.843V46.903"/><path fill="#066da5" d="M89.025 61.337h1.803V50.51h-1.803v10.827m5.41 0h1.805V50.51h-1.804v10.827m5.412 0h1.804V50.51h-1.804v10.827"/><path fill="#099cec" fill-rule="evenodd" d="M108.868 46.904v18.003h19.844V46.903"/><path fill="#066da5" d="M112.476 61.337h1.804V50.51h-1.804v10.827m5.412 0h1.804V50.51h-1.804v10.827m5.412 0h1.804V50.51H123.3v10.827"/><path fill="#099cec" fill-rule="evenodd" d="M85.417 25.294v18.003h19.844V25.293"/><path fill="#066da5" d="M89.025 39.727h1.804V28.9h-1.81v10.827m5.41 0h1.8V28.9h-1.8v10.827m5.41 0h1.8V28.9h-1.8v10.827"/><path fill="#099cec" fill-rule="evenodd" d="M85.417 3.647v18h19.844v-18"/><path fill="#066da5" d="M89.025 18.077h1.804V7.254h-1.81v10.823m5.41 0h1.8V7.254h-1.8v10.823m5.41 0h1.8V7.254h-1.8v10.823"/><path fill="#099cec" fill-rule="evenodd" d="M61.966 25.294v18.003H81.81V25.293"/><path fill="#066da5" d="M65.574 39.727h1.804V28.9h-1.804v10.827m5.41 0h1.806V28.9h-1.805v10.827m5.412 0h1.805V28.9h-1.805v10.827"/><path fill="#099cec" fill-rule="evenodd" d="M38.514 25.294v18.003h19.844V25.293"/><path fill="#066da5" d="M42.122 39.727h1.804V28.9h-1.804v10.827m5.41 0h1.806V28.9h-1.805v10.827m5.412 0h1.805V28.9h-1.805v10.827"/><path fill="#099cec" fill-rule="evenodd" d="M38.514 46.904v18.003h19.844V46.903"/><path fill="#066da5" d="M42.122 61.337h1.804V50.51h-1.804v10.827m5.41 0h1.806V50.51h-1.805v10.827m5.412 0h1.805V50.51h-1.805v10.827"/><path fill="#099cec" fill-rule="evenodd" d="M15.063 46.904v18.003h19.844V46.903"/><path fill="#066da5" d="M18.67 61.337h1.805V50.51H18.67v10.827m5.412 0h1.805V50.51h-1.805v10.827m5.412 0H31.3V50.51h-1.806v10.827"/><path fill="#066da5" d="M187.36 55.084c-.22.455-.41.838-.557 1.127-.08.16-.143.28-.318.59-2.678 5.18-6.612 8.42-11.6 10.17-3.948 1.39-7.528 1.7-12.892 1.59-.053 0-.39-.01-.937-.02l-1.243-.02-.46 1.16c-15.782 39.58-50.245 60.61-95.74 60.61-26.008 0-42.98-9.85-52.342-26.65-3.61-6.482-5.91-13.76-6.98-21.206-.75-5.166-.85-10.18-.43-13.884h7.61v.02h120.86v-.03c7.15-.08 13.83-2.29 17.18-4.89l1.48-1.15-1.19-1.444c-2.23-2.714-3.67-6.69-4.1-10.835-.51-6.32 1.02-13.013 4.22-17.87l.8-1.21 1.15.775c7.01 5.47 10.6 11.55 10.98 18.6l.12 2.235 2.15-.577c7.03-1.894 17.31-.97 21.09 1.57l1.398.936c-.06.13-.125.26-.215.442zm-172.297-8.18h19.844v18.003H15.063zm23.45 0H58.36v18.003H38.514zm0-21.61H58.36v18.003H38.514zm23.453 21.61H81.81v18.003H61.966zm0-21.61H81.81v18.003H61.966zm23.45 21.61h19.844v18.003H85.417zm0-21.61h19.845v18.003H85.42zm0-21.648h19.845v18H85.42zm23.452 43.25h19.844v18.01h-19.844zm79.32 3.78c-4.333-2.92-14.215-4.02-21.955-2.54-.998-7.3-5.092-13.63-12.27-19.23l-4.262-2.86-2.8 4.233c-3.67 5.57-5.38 13.07-4.8 20.22.43 4.1 1.7 8.05 3.73 11.18-3.07 1.71-8.11 3.11-13.49 3.18V43.29h-23.46V0H81.81v21.647H34.908v21.65H11.454v21.61H.754L.5 66.417c-.703 4.17-.693 10.257.214 16.526 1.137 7.867 3.568 15.566 7.41 22.462 10.006 17.96 28.185 28.51 55.49 28.51 46.457 0 82.046-21.45 98.615-61.723 5.59.1 9.46-.256 13.84-1.796 5.8-2.04 10.45-5.86 13.57-11.86.17-.29.43-.8.97-1.91l.61-1.26.27-.58.68-1.43-4.01-2.695"/></svg>