<svg xmlns="http://www.w3.org/2000/svg" width="425.2" height="425.2"><path fill="#E95420" d="M354.33 212.6c0 78.27-63.45 141.73-141.73 141.73-78.28 0-141.73-63.46-141.73-141.73 0-78.28 63.45-141.73 141.73-141.73 78.28 0 141.73 63.45 141.73 141.72z"/><path fill="#FFF" d="M139.04 212.6c0 10.06-8.16 18.22-18.23 18.22-10 0-18.2-8.16-18.2-18.23s8.2-18.3 18.2-18.3c10.1 0 18.3 8.16 18.3 18.22zm103.68 88.6c5.03 8.7 16.17 11.7 24.9 6.67 8.7-5.03 11.7-16.18 6.65-24.9-5.03-8.7-16.17-11.7-24.88-6.66-8.8 5.1-11.8 16.2-6.7 24.9zm31.55-158.98c5.04-8.72 2.06-19.86-6.66-24.9-8.7-5.02-19.8-2.03-24.8 6.68-5.04 8.7-2.05 19.86 6.67 24.9 8.7 5.02 19.86 2.03 24.88-6.68zm-61.67 18.4c27.16 0 49.44 20.83 51.76 47.38l26.37-.42c-1.25-19.73-9.8-37.47-23-50.55-6.97 2.7-15.07 2.33-22.06-1.7-7-4.05-11.35-10.88-12.5-18.3-6.56-1.77-13.46-2.72-20.57-2.72-12.47 0-24.26 3-34.72 8.1l12.83 23.1c6.7-3.1 14.1-4.8 21.9-4.8zm-51.97 51.97c0-17.6 8.74-33.2 22.1-42.6l-13.53-22.6c-15.7 10.47-27.4 26.45-32.3 45.2 5.8 4.7 9.53 11.9 9.53 20s-3.73 15.25-9.57 19.94c4.92 18.73 16.6 34.7 32.3 45.2l13.53-22.64c-13.4-9.4-22.1-24.9-22.1-42.5zm51.97 51.9c-7.8 0-15.24-1.75-21.9-4.84l-12.82 23.04c10.46 5.2 22.25 8.1 34.72 8.1 7.1 0 14-.93 20.56-2.7 1.15-7.4 5.52-14.26 12.5-18.3 7-4.02 15.1-4.4 22.08-1.7 13.2-13.1 21.74-30.83 23-50.56l-26.38-.4c-2.32 26.54-24.6 47.36-51.76 47.36z"/></svg>